<mxfile host="app.diagrams.net" modified="2023-06-21T14:20:07.994Z" agent="Mozilla/5.0 (Macintosh; Intel Mac OS X 10_15_7) AppleWebKit/605.1.15 (KHTML, like Gecko) Version/16.5 Safari/605.1.15" etag="_FuJM4wIGGTH4pASsfcZ" version="21.5.0">
  <diagram name="Page-1" id="YTXqIrBH7kxVU3JvU99M">
    <mxGraphModel dx="838" dy="687" grid="1" gridSize="10" guides="1" tooltips="1" connect="1" arrows="1" fold="1" page="1" pageScale="1" pageWidth="827" pageHeight="1169" math="0" shadow="0">
      <root>
        <mxCell id="0" />
        <mxCell id="1" parent="0" />
        <mxCell id="Kb8Lo4DgebUI9jWaLKne-10" style="edgeStyle=orthogonalEdgeStyle;rounded=0;orthogonalLoop=1;jettySize=auto;html=1;exitX=0.5;exitY=1;exitDx=0;exitDy=0;entryX=0.5;entryY=0;entryDx=0;entryDy=0;" parent="1" source="Kb8Lo4DgebUI9jWaLKne-1" target="Kb8Lo4DgebUI9jWaLKne-2" edge="1">
          <mxGeometry relative="1" as="geometry" />
        </mxCell>
        <mxCell id="Kb8Lo4DgebUI9jWaLKne-1" value="Start" style="rounded=1;whiteSpace=wrap;html=1;" parent="1" vertex="1">
          <mxGeometry x="95" y="80" width="90" height="40" as="geometry" />
        </mxCell>
        <mxCell id="Kb8Lo4DgebUI9jWaLKne-11" style="edgeStyle=orthogonalEdgeStyle;rounded=0;orthogonalLoop=1;jettySize=auto;html=1;exitX=0.5;exitY=1;exitDx=0;exitDy=0;entryX=0.5;entryY=0;entryDx=0;entryDy=0;" parent="1" source="Kb8Lo4DgebUI9jWaLKne-2" target="Kb8Lo4DgebUI9jWaLKne-3" edge="1">
          <mxGeometry relative="1" as="geometry" />
        </mxCell>
        <mxCell id="Kb8Lo4DgebUI9jWaLKne-2" value="Display Menu" style="shape=parallelogram;perimeter=parallelogramPerimeter;whiteSpace=wrap;html=1;fixedSize=1;" parent="1" vertex="1">
          <mxGeometry x="80" y="160" width="120" height="60" as="geometry" />
        </mxCell>
        <mxCell id="Kb8Lo4DgebUI9jWaLKne-12" style="edgeStyle=orthogonalEdgeStyle;rounded=0;orthogonalLoop=1;jettySize=auto;html=1;exitX=0.5;exitY=1;exitDx=0;exitDy=0;entryX=0.5;entryY=0;entryDx=0;entryDy=0;" parent="1" source="Kb8Lo4DgebUI9jWaLKne-3" target="Kb8Lo4DgebUI9jWaLKne-4" edge="1">
          <mxGeometry relative="1" as="geometry" />
        </mxCell>
        <mxCell id="Kb8Lo4DgebUI9jWaLKne-3" value="Read User Choice" style="rounded=0;whiteSpace=wrap;html=1;" parent="1" vertex="1">
          <mxGeometry x="85" y="260" width="110" height="40" as="geometry" />
        </mxCell>
        <mxCell id="Kb8Lo4DgebUI9jWaLKne-13" style="edgeStyle=orthogonalEdgeStyle;rounded=0;orthogonalLoop=1;jettySize=auto;html=1;exitX=0.5;exitY=1;exitDx=0;exitDy=0;entryX=0.5;entryY=0;entryDx=0;entryDy=0;" parent="1" source="Kb8Lo4DgebUI9jWaLKne-4" target="Kb8Lo4DgebUI9jWaLKne-5" edge="1">
          <mxGeometry relative="1" as="geometry" />
        </mxCell>
        <mxCell id="Kb8Lo4DgebUI9jWaLKne-4" value="Choice" style="rhombus;whiteSpace=wrap;html=1;" parent="1" vertex="1">
          <mxGeometry x="100" y="340" width="80" height="80" as="geometry" />
        </mxCell>
        <mxCell id="Kb8Lo4DgebUI9jWaLKne-14" style="edgeStyle=orthogonalEdgeStyle;rounded=0;orthogonalLoop=1;jettySize=auto;html=1;exitX=0.5;exitY=1;exitDx=0;exitDy=0;entryX=0.5;entryY=0;entryDx=0;entryDy=0;" parent="1" source="Kb8Lo4DgebUI9jWaLKne-5" target="Kb8Lo4DgebUI9jWaLKne-7" edge="1">
          <mxGeometry relative="1" as="geometry" />
        </mxCell>
        <mxCell id="Kb8Lo4DgebUI9jWaLKne-16" style="edgeStyle=orthogonalEdgeStyle;rounded=0;orthogonalLoop=1;jettySize=auto;html=1;exitX=1;exitY=0.5;exitDx=0;exitDy=0;entryX=0;entryY=0.5;entryDx=0;entryDy=0;" parent="1" source="Kb8Lo4DgebUI9jWaLKne-5" target="Kb8Lo4DgebUI9jWaLKne-6" edge="1">
          <mxGeometry relative="1" as="geometry" />
        </mxCell>
        <mxCell id="Kb8Lo4DgebUI9jWaLKne-5" value="Perform Action" style="rounded=0;whiteSpace=wrap;html=1;" parent="1" vertex="1">
          <mxGeometry x="85" y="460" width="110" height="40" as="geometry" />
        </mxCell>
        <mxCell id="Kb8Lo4DgebUI9jWaLKne-19" style="edgeStyle=orthogonalEdgeStyle;rounded=0;orthogonalLoop=1;jettySize=auto;html=1;exitX=0.5;exitY=1;exitDx=0;exitDy=0;entryX=1;entryY=0.5;entryDx=0;entryDy=0;" parent="1" source="Kb8Lo4DgebUI9jWaLKne-6" target="Kb8Lo4DgebUI9jWaLKne-7" edge="1">
          <mxGeometry relative="1" as="geometry">
            <Array as="points">
              <mxPoint x="335" y="565" />
            </Array>
          </mxGeometry>
        </mxCell>
        <mxCell id="Kb8Lo4DgebUI9jWaLKne-6" value="Enhanced Action" style="rounded=0;whiteSpace=wrap;html=1;" parent="1" vertex="1">
          <mxGeometry x="280" y="460" width="110" height="40" as="geometry" />
        </mxCell>
        <mxCell id="Kb8Lo4DgebUI9jWaLKne-15" style="edgeStyle=orthogonalEdgeStyle;rounded=0;orthogonalLoop=1;jettySize=auto;html=1;exitX=0.5;exitY=1;exitDx=0;exitDy=0;entryX=0.5;entryY=0;entryDx=0;entryDy=0;" parent="1" source="Kb8Lo4DgebUI9jWaLKne-7" target="Kb8Lo4DgebUI9jWaLKne-9" edge="1">
          <mxGeometry relative="1" as="geometry" />
        </mxCell>
        <mxCell id="Kb8Lo4DgebUI9jWaLKne-7" value="Display Results" style="shape=parallelogram;perimeter=parallelogramPerimeter;whiteSpace=wrap;html=1;fixedSize=1;" parent="1" vertex="1">
          <mxGeometry x="80" y="540" width="120" height="50" as="geometry" />
        </mxCell>
        <mxCell id="Kb8Lo4DgebUI9jWaLKne-9" value="Stop" style="rounded=1;whiteSpace=wrap;html=1;" parent="1" vertex="1">
          <mxGeometry x="95" y="630" width="90" height="40" as="geometry" />
        </mxCell>
      </root>
    </mxGraphModel>
  </diagram>
</mxfile>
